<?xml version="1.0" encoding="iso-8859-1"?>
<!-- Uploaded to: SVG Repo, www.svgrepo.com, Generator: SVG Repo Mixer Tools -->
<svg fill="#000000" height="800px" width="800px" version="1.1" id="Capa_1" xmlns="http://www.w3.org/2000/svg" xmlns:xlink="http://www.w3.org/1999/xlink" 
	 viewBox="0 0 231.816 231.816" xml:space="preserve">
<path d="M209.677,11.706c-7.022,0-13.287,3.29-17.345,8.405H39.486c-4.059-5.115-10.323-8.405-17.345-8.405
	C9.933,11.706,0,21.637,0,33.845s9.933,22.14,22.141,22.14c7.674,0,14.447-3.926,18.42-9.874h0.014v159.643
	c0,7.917,6.812,14.357,14.774,14.357h117.211c7.911,0,14.015-6.44,14.015-14.357v-10.643h-122v-149h15v119.581
	c0,7.963,6.788,14.419,14.751,14.419h82.164c7.963,0,14.085-6.456,14.085-14.419V46.111h0.681c3.974,5.948,10.746,9.874,18.42,9.874
	c12.208,0,22.14-9.932,22.14-22.14S221.885,11.706,209.677,11.706z"/>
</svg>