<?xml version="1.0" encoding="iso-8859-1"?>
<!-- Uploaded to: SVG Repo, www.svgrepo.com, Generator: SVG Repo Mixer Tools -->
<svg height="800px" width="800px" version="1.1" id="Capa_1" xmlns="http://www.w3.org/2000/svg" xmlns:xlink="http://www.w3.org/1999/xlink" 
	 viewBox="0 0 328.29 328.29" xml:space="preserve">
<g>
	<g>
		<path style="fill:#010002;" d="M241.813,268.305l4.933-7.979c1.512-2.442,0.408-4.427-2.469-4.427H13.552
			c-2.872,0-6.429,1.98-7.941,4.427l-4.933,7.979c-1.512,2.442-0.408,4.427,2.469,4.427h230.731
			C236.744,272.732,240.301,270.747,241.813,268.305z"/>
		<path style="fill:#010002;" d="M206.981,180.143H164.48c-2.877,0-5.205,2.328-5.205,5.205v12.657c0,0.789,0.207,1.518,0.517,2.187
			c0.832,1.773,2.6,3.019,4.688,3.019h42.501c2.872,0,5.205-2.328,5.205-5.205v-2.366v-10.291
			C212.186,182.471,209.858,180.143,206.981,180.143z"/>
		<path style="fill:#010002;" d="M103.084,133.22c-8.648,5.004-12.706,14.169-9.061,20.467l31.318-18.118
			C121.702,129.271,111.732,128.216,103.084,133.22z"/>
		<path style="fill:#010002;" d="M311.96,63.421c-1.246,20.93-1.414,55.75-25.89,60.21c-0.577-0.729-1.262-1.371-2.012-1.947
			c-0.984-0.756-2.148-1.327-3.427-1.751c-1.284-0.424-2.665-0.729-4.253-0.729c-0.457,0-0.848,0.087-1.278,0.125
			c-6.293-1.033-18.395-2.6-34.326-2.6c-52.226,0-150.972,17.03-225.591,131.076c-0.038,0.06-0.071,0.114-0.098,0.163
			c0.06,0,0.131,0.005,0.207,0.005h234.5c1.414,0,2.671-1.24,2.921-2.877c1.24-8.044,5.88-22.229,23.056-26.809
			c1.702-0.451,3.084-2.045,3.084-3.557v-69.789c0.984-0.174,1.887-0.451,2.72-0.81c1.006-0.435,1.925-0.968,2.72-1.626
			c0.816-0.674,1.556-1.42,2.159-2.268c36.012-3.628,40.004-46.33,41.821-76.816C328.903,52.907,312.586,52.967,311.96,63.421z
			 M246.398,181.166c-0.065,12.853-11.65,13.614-28.773,14.256v2.578c0,5.869-4.775,10.644-10.644,10.644H164.48
			c-5.118,0-9.404-3.633-10.416-8.458c-21.038-0.359-37.693-4.64-31.416-15.273c11.444-19.39,31.22-31.362,62.424-37.383
			C246.637,135.646,246.637,135.646,246.398,181.166z"/>
	</g>
</g>
</svg>